<?xml version="1.0" encoding="UTF-8" standalone="no"?>
<!DOCTYPE svg PUBLIC "-//W3C//DTD SVG 1.1//EN"
 "http://www.w3.org/Graphics/SVG/1.1/DTD/svg11.dtd">
<!-- Generated by graphviz version 2.43.0 (0)
 -->
<!-- Title: model Pages: 1 -->
<svg width="272pt" height="864pt"
 viewBox="0.00 0.00 272.28 864.00" xmlns="http://www.w3.org/2000/svg" xmlns:xlink="http://www.w3.org/1999/xlink">
<g id="graph0" class="graph" transform="scale(0.83 0.83) rotate(0) translate(4 1040)">
<title>model</title>
<polygon fill="white" stroke="transparent" points="-4,4 -4,-1040 325,-1040 325,4 -4,4"/>
<!-- 0 -->
<g id="node1" class="node">
<title>0</title>
<polygon fill="lightyellow" stroke="transparent" points="246.5,-1036 74.5,-1036 74.5,-1004 246.5,-1004 246.5,-1036"/>
<polygon fill="none" stroke="black" points="74.5,-1004 74.5,-1036 157.5,-1036 157.5,-1004 74.5,-1004"/>
<text text-anchor="start" x="79.5" y="-1023" font-family="Linux libertine" font-size="10.00">input&#45;tensor</text>
<text text-anchor="start" x="94.5" y="-1012" font-family="Linux libertine" font-size="10.00">depth:0</text>
<polygon fill="none" stroke="black" points="157.5,-1004 157.5,-1036 246.5,-1036 246.5,-1004 157.5,-1004"/>
<text text-anchor="start" x="162.5" y="-1017.5" font-family="Linux libertine" font-size="10.00">(64, 1000, 5)</text>
</g>
<!-- 1 -->
<g id="node2" class="node">
<title>1</title>
<polygon fill="aliceblue" stroke="transparent" points="264,-968 57,-968 57,-926 264,-926 264,-968"/>
<polygon fill="none" stroke="black" points="57.5,-926 57.5,-968 110.5,-968 110.5,-926 57.5,-926"/>
<text text-anchor="start" x="62.5" y="-950" font-family="Linux libertine" font-size="10.00">permute</text>
<text text-anchor="start" x="62.5" y="-939" font-family="Linux libertine" font-size="10.00">depth:1</text>
<polygon fill="none" stroke="black" points="110.5,-947 110.5,-968 169.5,-968 169.5,-947 110.5,-947"/>
<text text-anchor="start" x="121.5" y="-955" font-family="Linux libertine" font-size="10.00">input:</text>
<polygon fill="none" stroke="black" points="169.5,-947 169.5,-968 264.5,-968 264.5,-947 169.5,-947"/>
<text text-anchor="start" x="174.5" y="-955" font-family="Linux libertine" font-size="10.00">(64, 1000, 5) </text>
<polygon fill="none" stroke="black" points="110.5,-926 110.5,-947 169.5,-947 169.5,-926 110.5,-926"/>
<text text-anchor="start" x="115.5" y="-934" font-family="Linux libertine" font-size="10.00">output: </text>
<polygon fill="none" stroke="black" points="169.5,-926 169.5,-947 264.5,-947 264.5,-926 169.5,-926"/>
<text text-anchor="start" x="174.5" y="-934" font-family="Linux libertine" font-size="10.00">(64, 5, 1000) </text>
</g>
<!-- 0&#45;&gt;1 -->
<g id="edge1" class="edge">
<title>0&#45;&gt;1</title>
<path fill="none" stroke="black" d="M160.5,-1003.94C160.5,-996.45 160.5,-987.12 160.5,-978.24"/>
<polygon fill="black" stroke="black" points="164,-978.16 160.5,-968.16 157,-978.16 164,-978.16"/>
</g>
<!-- 2 -->
<g id="node3" class="node">
<title>2</title>
<polygon fill="#c1ffc1" stroke="transparent" points="267,-890 54,-890 54,-848 267,-848 267,-890"/>
<polygon fill="none" stroke="black" points="54.5,-848 54.5,-890 107.5,-890 107.5,-848 54.5,-848"/>
<text text-anchor="start" x="62.5" y="-872" font-family="Linux libertine" font-size="10.00">Conv1d</text>
<text text-anchor="start" x="59.5" y="-861" font-family="Linux libertine" font-size="10.00">depth:1</text>
<polygon fill="none" stroke="black" points="107.5,-869 107.5,-890 166.5,-890 166.5,-869 107.5,-869"/>
<text text-anchor="start" x="118.5" y="-877" font-family="Linux libertine" font-size="10.00">input:</text>
<polygon fill="none" stroke="black" points="166.5,-869 166.5,-890 267.5,-890 267.5,-869 166.5,-869"/>
<text text-anchor="start" x="174.5" y="-877" font-family="Linux libertine" font-size="10.00">(64, 5, 1000) </text>
<polygon fill="none" stroke="black" points="107.5,-848 107.5,-869 166.5,-869 166.5,-848 107.5,-848"/>
<text text-anchor="start" x="112.5" y="-856" font-family="Linux libertine" font-size="10.00">output: </text>
<polygon fill="none" stroke="black" points="166.5,-848 166.5,-869 267.5,-869 267.5,-848 166.5,-848"/>
<text text-anchor="start" x="171.5" y="-856" font-family="Linux libertine" font-size="10.00">(64, 32, 1000) </text>
</g>
<!-- 1&#45;&gt;2 -->
<g id="edge2" class="edge">
<title>1&#45;&gt;2</title>
<path fill="none" stroke="black" d="M160.5,-925.63C160.5,-917.82 160.5,-908.73 160.5,-900.18"/>
<polygon fill="black" stroke="black" points="164,-900.16 160.5,-890.16 157,-900.16 164,-900.16"/>
</g>
<!-- 3 -->
<g id="node4" class="node">
<title>3</title>
<polygon fill="aliceblue" stroke="transparent" points="267,-812 54,-812 54,-770 267,-770 267,-812"/>
<polygon fill="none" stroke="black" points="54.5,-770 54.5,-812 107.5,-812 107.5,-770 54.5,-770"/>
<text text-anchor="start" x="68.5" y="-794" font-family="Linux libertine" font-size="10.00">relu</text>
<text text-anchor="start" x="59.5" y="-783" font-family="Linux libertine" font-size="10.00">depth:1</text>
<polygon fill="none" stroke="black" points="107.5,-791 107.5,-812 166.5,-812 166.5,-791 107.5,-791"/>
<text text-anchor="start" x="118.5" y="-799" font-family="Linux libertine" font-size="10.00">input:</text>
<polygon fill="none" stroke="black" points="166.5,-791 166.5,-812 267.5,-812 267.5,-791 166.5,-791"/>
<text text-anchor="start" x="171.5" y="-799" font-family="Linux libertine" font-size="10.00">(64, 32, 1000) </text>
<polygon fill="none" stroke="black" points="107.5,-770 107.5,-791 166.5,-791 166.5,-770 107.5,-770"/>
<text text-anchor="start" x="112.5" y="-778" font-family="Linux libertine" font-size="10.00">output: </text>
<polygon fill="none" stroke="black" points="166.5,-770 166.5,-791 267.5,-791 267.5,-770 166.5,-770"/>
<text text-anchor="start" x="171.5" y="-778" font-family="Linux libertine" font-size="10.00">(64, 32, 1000) </text>
</g>
<!-- 2&#45;&gt;3 -->
<g id="edge3" class="edge">
<title>2&#45;&gt;3</title>
<path fill="none" stroke="black" d="M160.5,-847.63C160.5,-839.82 160.5,-830.73 160.5,-822.18"/>
<polygon fill="black" stroke="black" points="164,-822.16 160.5,-812.16 157,-822.16 164,-822.16"/>
</g>
<!-- 4 -->
<g id="node5" class="node">
<title>4</title>
<polygon fill="#c1ffc1" stroke="transparent" points="273,-734 48,-734 48,-692 273,-692 273,-734"/>
<polygon fill="none" stroke="black" points="48.5,-692 48.5,-734 113.5,-734 113.5,-692 48.5,-692"/>
<text text-anchor="start" x="53.5" y="-716" font-family="Linux libertine" font-size="10.00">MaxPool1d</text>
<text text-anchor="start" x="59.5" y="-705" font-family="Linux libertine" font-size="10.00">depth:1</text>
<polygon fill="none" stroke="black" points="113.5,-713 113.5,-734 172.5,-734 172.5,-713 113.5,-713"/>
<text text-anchor="start" x="124.5" y="-721" font-family="Linux libertine" font-size="10.00">input:</text>
<polygon fill="none" stroke="black" points="172.5,-713 172.5,-734 273.5,-734 273.5,-713 172.5,-713"/>
<text text-anchor="start" x="177.5" y="-721" font-family="Linux libertine" font-size="10.00">(64, 32, 1000) </text>
<polygon fill="none" stroke="black" points="113.5,-692 113.5,-713 172.5,-713 172.5,-692 113.5,-692"/>
<text text-anchor="start" x="118.5" y="-700" font-family="Linux libertine" font-size="10.00">output: </text>
<polygon fill="none" stroke="black" points="172.5,-692 172.5,-713 273.5,-713 273.5,-692 172.5,-692"/>
<text text-anchor="start" x="180.5" y="-700" font-family="Linux libertine" font-size="10.00">(64, 32, 500) </text>
</g>
<!-- 3&#45;&gt;4 -->
<g id="edge4" class="edge">
<title>3&#45;&gt;4</title>
<path fill="none" stroke="black" d="M160.5,-769.63C160.5,-761.82 160.5,-752.73 160.5,-744.18"/>
<polygon fill="black" stroke="black" points="164,-744.16 160.5,-734.16 157,-744.16 164,-744.16"/>
</g>
<!-- 5 -->
<g id="node6" class="node">
<title>5</title>
<polygon fill="#c1ffc1" stroke="transparent" points="264,-656 57,-656 57,-614 264,-614 264,-656"/>
<polygon fill="none" stroke="black" points="57.5,-614 57.5,-656 110.5,-656 110.5,-614 57.5,-614"/>
<text text-anchor="start" x="65.5" y="-638" font-family="Linux libertine" font-size="10.00">Conv1d</text>
<text text-anchor="start" x="62.5" y="-627" font-family="Linux libertine" font-size="10.00">depth:1</text>
<polygon fill="none" stroke="black" points="110.5,-635 110.5,-656 169.5,-656 169.5,-635 110.5,-635"/>
<text text-anchor="start" x="121.5" y="-643" font-family="Linux libertine" font-size="10.00">input:</text>
<polygon fill="none" stroke="black" points="169.5,-635 169.5,-656 264.5,-656 264.5,-635 169.5,-635"/>
<text text-anchor="start" x="174.5" y="-643" font-family="Linux libertine" font-size="10.00">(64, 32, 500) </text>
<polygon fill="none" stroke="black" points="110.5,-614 110.5,-635 169.5,-635 169.5,-614 110.5,-614"/>
<text text-anchor="start" x="115.5" y="-622" font-family="Linux libertine" font-size="10.00">output: </text>
<polygon fill="none" stroke="black" points="169.5,-614 169.5,-635 264.5,-635 264.5,-614 169.5,-614"/>
<text text-anchor="start" x="174.5" y="-622" font-family="Linux libertine" font-size="10.00">(64, 64, 500) </text>
</g>
<!-- 4&#45;&gt;5 -->
<g id="edge5" class="edge">
<title>4&#45;&gt;5</title>
<path fill="none" stroke="black" d="M160.5,-691.63C160.5,-683.82 160.5,-674.73 160.5,-666.18"/>
<polygon fill="black" stroke="black" points="164,-666.16 160.5,-656.16 157,-666.16 164,-666.16"/>
</g>
<!-- 6 -->
<g id="node7" class="node">
<title>6</title>
<polygon fill="aliceblue" stroke="transparent" points="264,-578 57,-578 57,-536 264,-536 264,-578"/>
<polygon fill="none" stroke="black" points="57.5,-536 57.5,-578 110.5,-578 110.5,-536 57.5,-536"/>
<text text-anchor="start" x="71.5" y="-560" font-family="Linux libertine" font-size="10.00">relu</text>
<text text-anchor="start" x="62.5" y="-549" font-family="Linux libertine" font-size="10.00">depth:1</text>
<polygon fill="none" stroke="black" points="110.5,-557 110.5,-578 169.5,-578 169.5,-557 110.5,-557"/>
<text text-anchor="start" x="121.5" y="-565" font-family="Linux libertine" font-size="10.00">input:</text>
<polygon fill="none" stroke="black" points="169.5,-557 169.5,-578 264.5,-578 264.5,-557 169.5,-557"/>
<text text-anchor="start" x="174.5" y="-565" font-family="Linux libertine" font-size="10.00">(64, 64, 500) </text>
<polygon fill="none" stroke="black" points="110.5,-536 110.5,-557 169.5,-557 169.5,-536 110.5,-536"/>
<text text-anchor="start" x="115.5" y="-544" font-family="Linux libertine" font-size="10.00">output: </text>
<polygon fill="none" stroke="black" points="169.5,-536 169.5,-557 264.5,-557 264.5,-536 169.5,-536"/>
<text text-anchor="start" x="174.5" y="-544" font-family="Linux libertine" font-size="10.00">(64, 64, 500) </text>
</g>
<!-- 5&#45;&gt;6 -->
<g id="edge6" class="edge">
<title>5&#45;&gt;6</title>
<path fill="none" stroke="black" d="M160.5,-613.63C160.5,-605.82 160.5,-596.73 160.5,-588.18"/>
<polygon fill="black" stroke="black" points="164,-588.16 160.5,-578.16 157,-588.16 164,-588.16"/>
</g>
<!-- 7 -->
<g id="node8" class="node">
<title>7</title>
<polygon fill="#c1ffc1" stroke="transparent" points="270,-500 51,-500 51,-458 270,-458 270,-500"/>
<polygon fill="none" stroke="black" points="51.5,-458 51.5,-500 116.5,-500 116.5,-458 51.5,-458"/>
<text text-anchor="start" x="56.5" y="-482" font-family="Linux libertine" font-size="10.00">MaxPool1d</text>
<text text-anchor="start" x="62.5" y="-471" font-family="Linux libertine" font-size="10.00">depth:1</text>
<polygon fill="none" stroke="black" points="116.5,-479 116.5,-500 175.5,-500 175.5,-479 116.5,-479"/>
<text text-anchor="start" x="127.5" y="-487" font-family="Linux libertine" font-size="10.00">input:</text>
<polygon fill="none" stroke="black" points="175.5,-479 175.5,-500 270.5,-500 270.5,-479 175.5,-479"/>
<text text-anchor="start" x="180.5" y="-487" font-family="Linux libertine" font-size="10.00">(64, 64, 500) </text>
<polygon fill="none" stroke="black" points="116.5,-458 116.5,-479 175.5,-479 175.5,-458 116.5,-458"/>
<text text-anchor="start" x="121.5" y="-466" font-family="Linux libertine" font-size="10.00">output: </text>
<polygon fill="none" stroke="black" points="175.5,-458 175.5,-479 270.5,-479 270.5,-458 175.5,-458"/>
<text text-anchor="start" x="180.5" y="-466" font-family="Linux libertine" font-size="10.00">(64, 64, 250) </text>
</g>
<!-- 6&#45;&gt;7 -->
<g id="edge7" class="edge">
<title>6&#45;&gt;7</title>
<path fill="none" stroke="black" d="M160.5,-535.63C160.5,-527.82 160.5,-518.73 160.5,-510.18"/>
<polygon fill="black" stroke="black" points="164,-510.16 160.5,-500.16 157,-510.16 164,-510.16"/>
</g>
<!-- 8 -->
<g id="node9" class="node">
<title>8</title>
<polygon fill="#c1ffc1" stroke="transparent" points="264,-422 57,-422 57,-380 264,-380 264,-422"/>
<polygon fill="none" stroke="black" points="57.5,-380 57.5,-422 110.5,-422 110.5,-380 57.5,-380"/>
<text text-anchor="start" x="62.5" y="-404" font-family="Linux libertine" font-size="10.00">Dropout</text>
<text text-anchor="start" x="62.5" y="-393" font-family="Linux libertine" font-size="10.00">depth:1</text>
<polygon fill="none" stroke="black" points="110.5,-401 110.5,-422 169.5,-422 169.5,-401 110.5,-401"/>
<text text-anchor="start" x="121.5" y="-409" font-family="Linux libertine" font-size="10.00">input:</text>
<polygon fill="none" stroke="black" points="169.5,-401 169.5,-422 264.5,-422 264.5,-401 169.5,-401"/>
<text text-anchor="start" x="174.5" y="-409" font-family="Linux libertine" font-size="10.00">(64, 64, 250) </text>
<polygon fill="none" stroke="black" points="110.5,-380 110.5,-401 169.5,-401 169.5,-380 110.5,-380"/>
<text text-anchor="start" x="115.5" y="-388" font-family="Linux libertine" font-size="10.00">output: </text>
<polygon fill="none" stroke="black" points="169.5,-380 169.5,-401 264.5,-401 264.5,-380 169.5,-380"/>
<text text-anchor="start" x="174.5" y="-388" font-family="Linux libertine" font-size="10.00">(64, 64, 250) </text>
</g>
<!-- 7&#45;&gt;8 -->
<g id="edge8" class="edge">
<title>7&#45;&gt;8</title>
<path fill="none" stroke="black" d="M160.5,-457.63C160.5,-449.82 160.5,-440.73 160.5,-432.18"/>
<polygon fill="black" stroke="black" points="164,-432.16 160.5,-422.16 157,-432.16 164,-432.16"/>
</g>
<!-- 9 -->
<g id="node10" class="node">
<title>9</title>
<polygon fill="aliceblue" stroke="transparent" points="264,-344 57,-344 57,-302 264,-302 264,-344"/>
<polygon fill="none" stroke="black" points="57.5,-302 57.5,-344 110.5,-344 110.5,-302 57.5,-302"/>
<text text-anchor="start" x="62.5" y="-326" font-family="Linux libertine" font-size="10.00">permute</text>
<text text-anchor="start" x="62.5" y="-315" font-family="Linux libertine" font-size="10.00">depth:1</text>
<polygon fill="none" stroke="black" points="110.5,-323 110.5,-344 169.5,-344 169.5,-323 110.5,-323"/>
<text text-anchor="start" x="121.5" y="-331" font-family="Linux libertine" font-size="10.00">input:</text>
<polygon fill="none" stroke="black" points="169.5,-323 169.5,-344 264.5,-344 264.5,-323 169.5,-323"/>
<text text-anchor="start" x="174.5" y="-331" font-family="Linux libertine" font-size="10.00">(64, 64, 250) </text>
<polygon fill="none" stroke="black" points="110.5,-302 110.5,-323 169.5,-323 169.5,-302 110.5,-302"/>
<text text-anchor="start" x="115.5" y="-310" font-family="Linux libertine" font-size="10.00">output: </text>
<polygon fill="none" stroke="black" points="169.5,-302 169.5,-323 264.5,-323 264.5,-302 169.5,-302"/>
<text text-anchor="start" x="174.5" y="-310" font-family="Linux libertine" font-size="10.00">(64, 250, 64) </text>
</g>
<!-- 8&#45;&gt;9 -->
<g id="edge9" class="edge">
<title>8&#45;&gt;9</title>
<path fill="none" stroke="black" d="M160.5,-379.63C160.5,-371.82 160.5,-362.73 160.5,-354.18"/>
<polygon fill="black" stroke="black" points="164,-354.16 160.5,-344.16 157,-354.16 164,-354.16"/>
</g>
<!-- 10 -->
<g id="node11" class="node">
<title>10</title>
<polygon fill="#c1ffc1" stroke="transparent" points="321,-266 0,-266 0,-224 321,-224 321,-266"/>
<polygon fill="none" stroke="black" points="0.5,-224 0.5,-266 53.5,-266 53.5,-224 0.5,-224"/>
<text text-anchor="start" x="14.5" y="-248" font-family="Linux libertine" font-size="10.00">LSTM</text>
<text text-anchor="start" x="5.5" y="-237" font-family="Linux libertine" font-size="10.00">depth:1</text>
<polygon fill="none" stroke="black" points="53.5,-245 53.5,-266 112.5,-266 112.5,-245 53.5,-245"/>
<text text-anchor="start" x="64.5" y="-253" font-family="Linux libertine" font-size="10.00">input:</text>
<polygon fill="none" stroke="black" points="112.5,-245 112.5,-266 321.5,-266 321.5,-245 112.5,-245"/>
<text text-anchor="start" x="174.5" y="-253" font-family="Linux libertine" font-size="10.00">(64, 250, 64) </text>
<polygon fill="none" stroke="black" points="53.5,-224 53.5,-245 112.5,-245 112.5,-224 53.5,-224"/>
<text text-anchor="start" x="58.5" y="-232" font-family="Linux libertine" font-size="10.00">output: </text>
<polygon fill="none" stroke="black" points="112.5,-224 112.5,-245 321.5,-245 321.5,-224 112.5,-224"/>
<text text-anchor="start" x="117.5" y="-232" font-family="Linux libertine" font-size="10.00">(64, 250, 256), 2 x (2, 64, 128) </text>
</g>
<!-- 9&#45;&gt;10 -->
<g id="edge10" class="edge">
<title>9&#45;&gt;10</title>
<path fill="none" stroke="black" d="M160.5,-301.63C160.5,-293.82 160.5,-284.73 160.5,-276.18"/>
<polygon fill="black" stroke="black" points="164,-276.16 160.5,-266.16 157,-276.16 164,-276.16"/>
</g>
<!-- 11 -->
<g id="node12" class="node">
<title>11</title>
<polygon fill="aliceblue" stroke="transparent" points="267,-188 54,-188 54,-146 267,-146 267,-188"/>
<polygon fill="none" stroke="black" points="54.5,-146 54.5,-188 107.5,-188 107.5,-146 54.5,-146"/>
<text text-anchor="start" x="68.5" y="-170" font-family="Linux libertine" font-size="10.00">mean</text>
<text text-anchor="start" x="59.5" y="-159" font-family="Linux libertine" font-size="10.00">depth:1</text>
<polygon fill="none" stroke="black" points="107.5,-167 107.5,-188 166.5,-188 166.5,-167 107.5,-167"/>
<text text-anchor="start" x="118.5" y="-175" font-family="Linux libertine" font-size="10.00">input:</text>
<polygon fill="none" stroke="black" points="166.5,-167 166.5,-188 267.5,-188 267.5,-167 166.5,-167"/>
<text text-anchor="start" x="171.5" y="-175" font-family="Linux libertine" font-size="10.00">(64, 250, 256) </text>
<polygon fill="none" stroke="black" points="107.5,-146 107.5,-167 166.5,-167 166.5,-146 107.5,-146"/>
<text text-anchor="start" x="112.5" y="-154" font-family="Linux libertine" font-size="10.00">output: </text>
<polygon fill="none" stroke="black" points="166.5,-146 166.5,-167 267.5,-167 267.5,-146 166.5,-146"/>
<text text-anchor="start" x="186.5" y="-154" font-family="Linux libertine" font-size="10.00">(64, 256) </text>
</g>
<!-- 10&#45;&gt;11 -->
<g id="edge11" class="edge">
<title>10&#45;&gt;11</title>
<path fill="none" stroke="black" d="M160.5,-223.63C160.5,-215.82 160.5,-206.73 160.5,-198.18"/>
<polygon fill="black" stroke="black" points="164,-198.16 160.5,-188.16 157,-198.16 164,-198.16"/>
</g>
<!-- 12 -->
<g id="node13" class="node">
<title>12</title>
<polygon fill="#c1ffc1" stroke="transparent" points="252,-110 69,-110 69,-68 252,-68 252,-110"/>
<polygon fill="none" stroke="black" points="69.5,-68 69.5,-110 122.5,-110 122.5,-68 69.5,-68"/>
<text text-anchor="start" x="77.5" y="-92" font-family="Linux libertine" font-size="10.00">Linear</text>
<text text-anchor="start" x="74.5" y="-81" font-family="Linux libertine" font-size="10.00">depth:1</text>
<polygon fill="none" stroke="black" points="122.5,-89 122.5,-110 181.5,-110 181.5,-89 122.5,-89"/>
<text text-anchor="start" x="133.5" y="-97" font-family="Linux libertine" font-size="10.00">input:</text>
<polygon fill="none" stroke="black" points="181.5,-89 181.5,-110 252.5,-110 252.5,-89 181.5,-89"/>
<text text-anchor="start" x="186.5" y="-97" font-family="Linux libertine" font-size="10.00">(64, 256) </text>
<polygon fill="none" stroke="black" points="122.5,-68 122.5,-89 181.5,-89 181.5,-68 122.5,-68"/>
<text text-anchor="start" x="127.5" y="-76" font-family="Linux libertine" font-size="10.00">output: </text>
<polygon fill="none" stroke="black" points="181.5,-68 181.5,-89 252.5,-89 252.5,-68 181.5,-68"/>
<text text-anchor="start" x="192.5" y="-76" font-family="Linux libertine" font-size="10.00">(64, 2) </text>
</g>
<!-- 11&#45;&gt;12 -->
<g id="edge12" class="edge">
<title>11&#45;&gt;12</title>
<path fill="none" stroke="black" d="M160.5,-145.63C160.5,-137.82 160.5,-128.73 160.5,-120.18"/>
<polygon fill="black" stroke="black" points="164,-120.16 160.5,-110.16 157,-120.16 164,-120.16"/>
</g>
<!-- 13 -->
<g id="node14" class="node">
<title>13</title>
<polygon fill="lightyellow" stroke="transparent" points="231.5,-32 89.5,-32 89.5,0 231.5,0 231.5,-32"/>
<polygon fill="none" stroke="black" points="89.5,0 89.5,-32 178.5,-32 178.5,0 89.5,0"/>
<text text-anchor="start" x="94.5" y="-19" font-family="Linux libertine" font-size="10.00">output&#45;tensor</text>
<text text-anchor="start" x="112.5" y="-8" font-family="Linux libertine" font-size="10.00">depth:0</text>
<polygon fill="none" stroke="black" points="178.5,0 178.5,-32 231.5,-32 231.5,0 178.5,0"/>
<text text-anchor="start" x="183.5" y="-13.5" font-family="Linux libertine" font-size="10.00">(64, 2)</text>
</g>
<!-- 12&#45;&gt;13 -->
<g id="edge13" class="edge">
<title>12&#45;&gt;13</title>
<path fill="none" stroke="black" d="M160.5,-67.84C160.5,-59.89 160.5,-50.66 160.5,-42.26"/>
<polygon fill="black" stroke="black" points="164,-42.24 160.5,-32.24 157,-42.24 164,-42.24"/>
</g>
</g>
</svg>
